<?xml version="1.0" encoding="UTF-8" standalone="no"?>
<!-- Created with Inkscape (http://www.inkscape.org/) -->

<svg
   xmlns:dc="http://purl.org/dc/elements/1.1/"
   xmlns:cc="http://creativecommons.org/ns#"
   xmlns:rdf="http://www.w3.org/1999/02/22-rdf-syntax-ns#"
   xmlns:svg="http://www.w3.org/2000/svg"
   xmlns="http://www.w3.org/2000/svg"
   xmlns:sodipodi="http://sodipodi.sourceforge.net/DTD/sodipodi-0.dtd"
   xmlns:inkscape="http://www.inkscape.org/namespaces/inkscape"
   width="744.09448819"
   height="1052.3622047"
   id="svg2"
   version="1.1"
   inkscape:version="0.48.4 r9939"
   sodipodi:docname="vector.svg">
  <defs
     id="defs4">
    <marker
       inkscape:stockid="Arrow2Mend"
       orient="auto"
       refY="0.0"
       refX="0.0"
       id="Arrow2Mend"
       style="overflow:visible;">
      <path
         id="path3802"
         style="fill-rule:evenodd;stroke-width:0.62500000;stroke-linejoin:round;"
         d="M 8.7185878,4.0337352 L -2.2072895,0.016013256 L 8.7185884,-4.0017078 C 6.9730900,-1.6296469 6.9831476,1.6157441 8.7185878,4.0337352 z "
         transform="scale(0.6) rotate(180) translate(0,0)" />
    </marker>
    <marker
       inkscape:stockid="Arrow1Mend"
       orient="auto"
       refY="0.0"
       refX="0.0"
       id="Arrow1Mend"
       style="overflow:visible;">
      <path
         id="path3784"
         d="M 0.0,0.0 L 5.0,-5.0 L -12.5,0.0 L 5.0,5.0 L 0.0,0.0 z "
         style="fill-rule:evenodd;stroke:#000000;stroke-width:1.0pt;"
         transform="scale(0.4) rotate(180) translate(10,0)" />
    </marker>
  </defs>
  <sodipodi:namedview
     id="base"
     pagecolor="#ffffff"
     bordercolor="#666666"
     borderopacity="1.0"
     inkscape:pageopacity="0.0"
     inkscape:pageshadow="2"
     inkscape:zoom="0.7"
     inkscape:cx="209.68749"
     inkscape:cy="624.01732"
     inkscape:document-units="px"
     inkscape:current-layer="layer1"
     showgrid="false"
     inkscape:window-width="1366"
     inkscape:window-height="716"
     inkscape:window-x="0"
     inkscape:window-y="0"
     inkscape:window-maximized="1" />
  <metadata
     id="metadata7">
    <rdf:RDF>
      <cc:Work
         rdf:about="">
        <dc:format>image/svg+xml</dc:format>
        <dc:type
           rdf:resource="http://purl.org/dc/dcmitype/StillImage" />
        <dc:title />
      </cc:Work>
    </rdf:RDF>
  </metadata>
  <g
     inkscape:label="Layer 1"
     inkscape:groupmode="layer"
     id="layer1">
    <g
       id="g4549"
       inkscape:export-filename="/home/gyosh/IdeaProjects/kemangi/docs/source/assets/topology.png"
       inkscape:export-xdpi="90"
       inkscape:export-ydpi="90">
      <rect
         ry="13.131984"
         rx="13.131983"
         y="251.87321"
         x="121.21831"
         height="59.037003"
         width="210.59505"
         id="rect2985"
         style="fill:#d35f5f;fill-opacity:1;stroke:none" />
      <text
         sodipodi:linespacing="125%"
         id="text3761"
         y="290.77893"
         x="181.73465"
         style="font-size:40px;font-style:normal;font-variant:normal;font-weight:normal;font-stretch:normal;text-align:start;line-height:125%;letter-spacing:0px;word-spacing:0px;text-anchor:start;fill:#000000;fill-opacity:1;stroke:none;font-family:Consolas;-inkscape-font-specification:Consolas"
         xml:space="preserve"><tspan
           y="290.77893"
           x="181.73465"
           id="tspan3763"
           sodipodi:role="line">core</tspan></text>
      <rect
         style="fill:#f0ff4f;fill-opacity:1;stroke:none"
         id="rect3765"
         width="210.59505"
         height="59.037003"
         x="121.21831"
         y="144.73036"
         rx="13.131983"
         ry="13.131984" />
      <text
         sodipodi:linespacing="125%"
         id="text3757"
         y="186.8558"
         x="208.34525"
         style="font-size:40px;font-style:normal;font-variant:normal;font-weight:normal;font-stretch:normal;text-align:start;line-height:125%;letter-spacing:0px;word-spacing:0px;text-anchor:start;fill:#000000;fill-opacity:1;stroke:none;font-family:Consolas;-inkscape-font-specification:Consolas"
         xml:space="preserve"><tspan
           y="186.8558"
           x="208.34525"
           id="tspan3759"
           sodipodi:role="line">UI</tspan></text>
      <path
         inkscape:connector-curvature="0"
         id="path3769"
         d="m 167.18024,207.29779 0,40.4061"
         style="fill:none;stroke:#000000;stroke-width:3.20000005;stroke-linecap:butt;stroke-linejoin:miter;stroke-miterlimit:4;stroke-opacity:1;stroke-dasharray:none;marker-end:url(#Arrow2Mend)" />
      <path
         inkscape:connector-curvature="0"
         id="path4217"
         d="m 229.80971,207.29779 0,40.4061"
         style="fill:none;stroke:#000000;stroke-width:3.20000005;stroke-linecap:butt;stroke-linejoin:miter;stroke-miterlimit:4;stroke-opacity:1;stroke-dasharray:none;marker-end:url(#Arrow2Mend)" />
      <path
         style="fill:none;stroke:#000000;stroke-width:3.20000005;stroke-linecap:butt;stroke-linejoin:miter;stroke-miterlimit:4;stroke-opacity:1;stroke-dasharray:none;marker-end:url(#Arrow2Mend)"
         d="m 292.43916,207.29779 0,40.4061"
         id="path4221"
         inkscape:connector-curvature="0" />
    </g>
    <g
       id="g4560"
       inkscape:export-filename="/home/gyosh/IdeaProjects/kemangi/docs/source/assets/interface.png"
       inkscape:export-xdpi="90"
       inkscape:export-ydpi="90">
      <path
         id="rect4447"
         d="M 174.75 377.59375 C 167.47488 377.59375 161.625 383.44363 161.625 390.71875 L 161.625 411.4375 C 175.08338 411.83687 185.875 422.85112 185.875 436.40625 C 185.875 449.96158 175.08365 461.00718 161.625 461.40625 L 161.625 479.59375 C 161.625 486.86887 167.47488 492.75 174.75 492.75 L 289.90625 492.75 C 297.18137 492.75 303.03125 486.86887 303.03125 479.59375 L 303.03125 390.71875 C 303.03125 383.44363 297.18137 377.59375 289.90625 377.59375 L 174.75 377.59375 z "
         style="fill:#b3b3b3;fill-opacity:1;stroke:none" />
      <path
         id="path4451"
         d="M 174.75 377.59375 C 167.47488 377.59375 161.625 383.44363 161.625 390.71875 L 161.625 411.4375 C 175.08338 411.83687 185.875 422.85112 185.875 436.40625 C 185.875 449.96158 175.08365 461.00718 161.625 461.40625 L 161.625 479.59375 C 161.625 486.86887 167.47488 492.75 174.75 492.75 L 289.90625 492.75 C 297.18137 492.75 303.03125 486.86887 303.03125 479.59375 L 303.03125 458.90625 C 303.42492 458.92674 303.81998 458.9375 304.21875 458.9375 C 316.64586 458.9375 326.71875 448.83336 326.71875 436.40625 C 326.71875 423.97914 316.64586 413.90625 304.21875 413.90625 C 303.81998 413.90625 303.42492 413.91701 303.03125 413.9375 L 303.03125 390.71875 C 303.03125 383.44363 297.18137 377.59375 289.90625 377.59375 L 174.75 377.59375 z "
         style="fill:#b3b3b3;fill-opacity:1;stroke:none" />
      <text
         xml:space="preserve"
         style="font-size:40px;font-style:normal;font-variant:normal;font-weight:normal;font-stretch:normal;text-align:start;line-height:125%;letter-spacing:0px;word-spacing:0px;text-anchor:start;fill:#000000;fill-opacity:1;stroke:none;font-family:Consolas;-inkscape-font-specification:Consolas"
         x="195.87679"
         y="445.33228"
         id="text4481"
         sodipodi:linespacing="125%"><tspan
           sodipodi:role="line"
           id="tspan4483"
           x="195.87679"
           y="445.33228">task</tspan></text>
    </g>
    <g
       id="g4566"
       inkscape:export-filename="/home/gyosh/IdeaProjects/kemangi/docs/source/assets/chained-task.png"
       inkscape:export-xdpi="90"
       inkscape:export-ydpi="90">
      <path
         inkscape:connector-curvature="0"
         style="fill:#b3b3b3;fill-opacity:1;stroke:none"
         d="m 95.958101,542.24861 c -7.27512,0 -13.125,5.84988 -13.125,13.125 l 0,20.71875 c 13.45838,0.39937 24.249999,11.41362 24.249999,24.96875 0,13.55533 -10.791349,24.60093 -24.249999,25 l 0,18.1875 c 0,7.27512 5.84988,13.15625 13.125,13.15625 l 115.156249,0 c 7.27512,0 13.125,-5.88113 13.125,-13.15625 l 0,-88.875 c 0,-7.27512 -5.84988,-13.125 -13.125,-13.125 l -115.156249,0 z"
         id="path4485" />
      <path
         inkscape:connector-curvature="0"
         style="fill:#706aec;fill-opacity:1;stroke:none"
         d="m 95.958101,542.24861 c -7.27512,0 -13.125,5.84988 -13.125,13.125 l 0,20.71875 c 13.45838,0.39937 24.249999,11.41362 24.249999,24.96875 0,13.55533 -10.791349,24.60093 -24.249999,25 l 0,18.1875 c 0,7.27512 5.84988,13.15625 13.125,13.15625 l 115.156249,0 c 7.27512,0 13.125,-5.88113 13.125,-13.15625 l 0,-20.6875 c 0.39367,0.0205 0.78873,0.0312 1.1875,0.0312 12.42711,0 22.5,-10.10414 22.5,-22.53125 0,-12.42711 -10.07289,-22.5 -22.5,-22.5 -0.39877,0 -0.79383,0.0108 -1.1875,0.0312 l 0,-23.21875 c 0,-7.27512 -5.84988,-13.125 -13.125,-13.125 l -115.156249,0 z"
         id="path4487" />
      <text
         sodipodi:linespacing="125%"
         id="text4489"
         y="586.41742"
         x="160.66422"
         style="font-size:27.61190414px;font-style:normal;font-variant:normal;font-weight:normal;font-stretch:normal;text-align:start;line-height:125%;letter-spacing:0px;word-spacing:0px;text-anchor:start;fill:#000000;fill-opacity:1;stroke:none;font-family:Consolas;-inkscape-font-specification:Consolas"
         xml:space="preserve"><tspan
           style="text-align:center;text-anchor:middle"
           y="586.41742"
           x="160.66422"
           sodipodi:role="line"
           id="tspan3019">case</tspan><tspan
           style="text-align:center;text-anchor:middle"
           y="620.93231"
           x="160.66422"
           sodipodi:role="line"
           id="tspan3023">folding</tspan></text>
      <path
         id="path4519"
         d="m 239.63436,542.24861 c -7.27512,0 -13.125,5.84988 -13.125,13.125 l 0,20.71875 c 13.45838,0.39937 24.25,11.41362 24.25,24.96875 0,13.55533 -10.79135,24.60093 -24.25,25 l 0,18.1875 c 0,7.27512 5.84988,13.15625 13.125,13.15625 l 115.15625,0 c 7.27512,0 13.125,-5.88113 13.125,-13.15625 l 0,-88.875 c 0,-7.27512 -5.84988,-13.125 -13.125,-13.125 l -115.15625,0 z"
         style="fill:#b3b3b3;fill-opacity:1;stroke:none"
         inkscape:connector-curvature="0" />
      <path
         id="path4521"
         d="m 239.63436,542.24861 c -7.27512,0 -13.125,5.84988 -13.125,13.125 l 0,20.71875 c 13.45838,0.39937 24.25,11.41362 24.25,24.96875 0,13.55533 -10.79135,24.60093 -24.25,25 l 0,18.1875 c 0,7.27512 5.84988,13.15625 13.125,13.15625 l 115.15625,0 c 7.27512,0 13.125,-5.88113 13.125,-13.15625 l 0,-20.6875 c 0.39367,0.0205 0.78873,0.0312 1.1875,0.0312 12.42711,0 22.5,-10.10414 22.5,-22.53125 0,-12.42711 -10.07289,-22.5 -22.5,-22.5 -0.39877,0 -0.79383,0.0108 -1.1875,0.0312 l 0,-23.21875 c 0,-7.27512 -5.84988,-13.125 -13.125,-13.125 l -115.15625,0 z"
         style="fill:#1ba94b;fill-opacity:1;stroke:none"
         inkscape:connector-curvature="0" />
      <path
         id="path4529"
         d="m 384.52953,542.24861 c -7.27512,0 -13.125,5.84988 -13.125,13.125 l 0,20.71875 c 13.45838,0.39937 24.25,11.41362 24.25,24.96875 0,13.55533 -10.79135,24.60093 -24.25,25 l 0,18.1875 c 0,7.27512 5.84988,13.15625 13.125,13.15625 l 115.15625,0 c 7.27512,0 13.125,-5.88113 13.125,-13.15625 l 0,-88.875 c 0,-7.27512 -5.84988,-13.125 -13.125,-13.125 l -115.15625,0 z"
         style="fill:#b3b3b3;fill-opacity:1;stroke:none"
         inkscape:connector-curvature="0" />
      <path
         id="path4531"
         d="m 383.51938,542.24861 c -7.27512,0 -13.125,5.84988 -13.125,13.125 l 0,20.71875 c 13.45838,0.39937 24.25,11.41362 24.25,24.96875 0,13.55533 -10.79135,24.60093 -24.25,25 l 0,18.1875 c 0,7.27512 5.84988,13.15625 13.125,13.15625 l 115.15625,0 c 7.27512,0 13.125,-5.88113 13.125,-13.15625 l 0,-20.6875 c 0.39367,0.0205 0.78873,0.0312 1.1875,0.0312 12.42711,0 22.5,-10.10414 22.5,-22.53125 0,-12.42711 -10.07289,-22.5 -22.5,-22.5 -0.39877,0 -0.79383,0.0108 -1.1875,0.0312 l 0,-23.21875 c 0,-7.27512 -5.84988,-13.125 -13.125,-13.125 l -115.15625,0 z"
         style="fill:#d59047;fill-opacity:1;stroke:none"
         inkscape:connector-curvature="0" />
      <text
         xml:space="preserve"
         style="font-size:27.61190414px;font-style:normal;font-variant:normal;font-weight:normal;font-stretch:normal;text-align:start;line-height:125%;letter-spacing:0px;word-spacing:0px;text-anchor:start;fill:#000000;fill-opacity:1;stroke:none;font-family:Consolas;-inkscape-font-specification:Consolas"
         x="301.37851"
         y="572.13165"
         id="text3038"
         sodipodi:linespacing="125%"><tspan
           id="tspan3042"
           sodipodi:role="line"
           x="301.37851"
           y="572.13165"
           style="text-align:center;text-anchor:middle">stop</tspan><tspan
           sodipodi:role="line"
           x="301.37851"
           y="606.64655"
           style="text-align:center;text-anchor:middle"
           id="tspan3046">words</tspan><tspan
           sodipodi:role="line"
           x="301.37851"
           y="641.16144"
           style="text-align:center;text-anchor:middle"
           id="tspan3048">removal</tspan></text>
      <text
         xml:space="preserve"
         style="font-size:27.61190414px;font-style:normal;font-variant:normal;font-weight:normal;font-stretch:normal;text-align:start;line-height:125%;letter-spacing:0px;word-spacing:0px;text-anchor:start;fill:#000000;fill-opacity:1;stroke:none;font-family:Consolas;-inkscape-font-specification:Consolas"
         x="448.22549"
         y="609.98883"
         id="text3050"
         sodipodi:linespacing="125%"><tspan
           id="tspan3054"
           sodipodi:role="line"
           x="448.22549"
           y="609.98883"
           style="text-align:center;text-anchor:middle">stem</tspan></text>
    </g>
  </g>
</svg>
